# ProBuilder 5.2.3
# https://unity3d.com/unity/features/worldbuilding/probuilder
# 27/01/2025 05:14:27

mtllib ./Cube_(49).mtl
o Cube (49)

g Cube (49)
v 7.629395E-06 0 10.49689
v -5.06855 0 10.49689
v 7.629395E-06 21.39143 10.49689
v -5.06855 21.39143 10.49689
v -5.06855 0 0
v -5.06855 21.39143 0
v 7.629395E-06 0 0
v 7.629395E-06 21.39143 0

vt 7.629395E-06 0
vt -5.06855 0
vt 7.629395E-06 21.39143
vt -5.06855 21.39143
vt 10.49689 0
vt 10.49689 21.39143
vt 5.06855 0
vt 5.06855 21.39143
vt -10.49689 0
vt -10.49689 21.39143
vt -7.629395E-06 10.49689
vt 5.06855 10.49689
vt -5.06855 10.49689

vn 0 0 1
vn -1 0 0
vn 0 0 -1
vn 1 0 0
vn 0 1 0
vn 0 -1 0

usemtl New_Material_3
f 3/3/1 4/4/1 2/2/1 1/1/1
f 4/6/2 6/3/2 5/1/2 2/5/2
f 6/8/3 8/3/3 7/1/3 5/7/3
f 8/3/4 3/10/4 1/9/4 7/1/4
f 8/1/5 6/7/5 4/12/5 3/11/5
f 1/11/6 2/13/6 5/2/6 7/1/6

